<svg width="24" height="24" viewBox="0 0 24 24" fill="none" xmlns="http://www.w3.org/2000/svg">
<path opacity="0.7" d="M23.0769 3H0.923077C0.678262 3 0.443473 3.09482 0.270363 3.2636C0.0972524 3.43239 0 3.66131 0 3.9V19.2C0 19.6774 0.194505 20.1352 0.540726 20.4728C0.886947 20.8104 1.35652 21 1.84615 21H22.1538C22.6435 21 23.1131 20.8104 23.4593 20.4728C23.8055 20.1352 24 19.6774 24 19.2V3.9C24 3.66131 23.9027 3.43239 23.7296 3.2636C23.5565 3.09482 23.3217 3 23.0769 3ZM12 12.5794L3.29654 4.8H20.7035L12 12.5794ZM8.62038 12L1.84615 18.0536V5.94638L8.62038 12ZM9.98654 13.2206L11.3712 14.4637C11.5415 14.6162 11.7642 14.7007 11.9954 14.7007C12.2266 14.7007 12.4493 14.6162 12.6196 14.4637L14.0042 13.2206L20.6965 19.2H3.29654L9.98654 13.2206ZM15.3796 12L22.1538 5.94525V18.0548L15.3796 12Z" fill="white"/>
</svg>
