<svg width="25" height="24" viewBox="0 0 25 24" fill="none" xmlns="http://www.w3.org/2000/svg">
<path d="M9.33248 23.734V15.7247H6.85848V12.0442H9.33248V10.4583C9.33248 6.35831 11.1805 4.45835 15.1905 4.45835C15.5915 4.45835 16.1455 4.5005 16.6585 4.56173C17.0427 4.60141 17.4239 4.6668 17.7995 4.75744V8.09468C17.5823 8.07435 17.3645 8.0623 17.1465 8.05855C16.9022 8.05219 16.6578 8.04917 16.4135 8.04951C15.7065 8.04951 15.1545 8.14587 14.7385 8.35965C14.4588 8.50048 14.2237 8.71664 14.0595 8.98394C13.8015 9.40549 13.6855 9.9826 13.6855 10.7424V12.0442H17.6045L17.2185 14.1549L16.9315 15.7247H13.6855V24C19.6275 23.2794 24.2315 18.2017 24.2315 12.0442C24.2315 5.39277 18.8585 0 12.2315 0C5.60448 0 0.231476 5.39277 0.231476 12.0442C0.231476 17.6929 4.10548 22.4323 9.33248 23.734Z" fill="white"/>
</svg>
