<svg width="56" height="56" viewBox="0 0 56 56" fill="none" xmlns="http://www.w3.org/2000/svg">
<rect width="56" height="56" rx="28" fill="white"/>
<path d="M31.7075 15.1864C32.0064 15.1864 32.2931 15.3052 32.5044 15.5165C32.7157 15.7278 32.8344 16.0146 32.8345 16.3134V18.7939C32.8345 18.849 32.879 18.8943 32.9341 18.8944H37.269C37.5678 18.8945 37.8546 19.0132 38.0659 19.2245C38.2771 19.4358 38.396 19.7227 38.396 20.0214C38.3959 20.3201 38.2772 20.607 38.0659 20.8183C37.8547 21.0295 37.5678 21.1483 37.269 21.1483H18.731C18.4322 21.1483 18.1454 21.0295 17.9341 20.8183C17.7228 20.607 17.6041 20.3201 17.604 20.0214C17.604 19.7226 17.7229 19.4358 17.9341 19.2245C18.1454 19.0132 18.4321 18.8945 18.731 18.8944H23.0659C23.121 18.8942 23.1655 18.8489 23.1655 18.7939V16.3134C23.1656 16.0146 23.2843 15.7278 23.4956 15.5165C23.7069 15.3052 23.9937 15.1864 24.2925 15.1864H31.7075Z" fill="#007926" stroke="#007926" stroke-width="0.4" stroke-linejoin="round"/>
<path d="M37.1019 25.0232L34.6179 39.8534C34.579 40.0661 34.4668 40.2586 34.301 40.3974C34.1351 40.5362 33.9258 40.6126 33.7095 40.6134H22.2903C22.074 40.6126 21.8648 40.5362 21.6989 40.3974C21.533 40.2586 21.4209 40.0661 21.382 39.8534L18.8979 25.0232C18.8765 24.8912 18.8839 24.7562 18.9197 24.6273C18.9554 24.4984 19.0185 24.3788 19.1048 24.2767C19.1911 24.1746 19.2985 24.0923 19.4196 24.0356C19.5407 23.9788 19.6726 23.949 19.8063 23.948H36.1751C36.3103 23.9463 36.4443 23.9742 36.5677 24.0297C36.691 24.0853 36.8007 24.1672 36.889 24.2696C36.9774 24.3721 37.0422 24.4926 37.079 24.6228C37.1158 24.753 37.1236 24.8897 37.1019 25.0232Z" fill="#007926" stroke="#007926" stroke-width="3" stroke-linejoin="round"/>
</svg>
