<svg width="57" height="56" viewBox="0 0 57 56" fill="none" xmlns="http://www.w3.org/2000/svg">
<rect x="0.333496" width="56" height="56" rx="28" fill="white"/>
<path d="M28.3335 30.5L31.4585 27.375M28.3335 28.625L24.5835 24.875M28.3335 40.5V24.25M21.4866 21.75C21.8022 18.2456 24.7472 15.5 28.3335 15.5C31.9197 15.5 34.8647 18.2456 35.1804 21.75H35.2085C36.7003 21.75 38.1311 22.3426 39.186 23.3975C40.2409 24.4524 40.8335 25.8832 40.8335 27.375C40.8335 28.8668 40.2409 30.2976 39.186 31.3525C38.1311 32.4074 36.7003 33 35.2085 33H21.4585C19.9667 33 18.5359 32.4074 17.481 31.3525C16.4261 30.2976 15.8335 28.8668 15.8335 27.375C15.8335 25.8832 16.4261 24.4524 17.481 23.3975C18.5359 22.3426 19.9667 21.75 21.4585 21.75H21.4866Z" stroke="black" stroke-width="2" stroke-linecap="round" stroke-linejoin="round"/>
</svg>
