<svg width="57" height="56" viewBox="0 0 57 56" fill="none" xmlns="http://www.w3.org/2000/svg">
<rect x="0.666504" width="56" height="56" rx="28" fill="white"/>
<path d="M25.1783 28.2882C25.3361 28.9717 24.5863 29.4911 24.0031 29.1265L22.014 27.8836L19.5303 31.8583C18.8816 32.8961 19.6313 34.25 20.8546 34.25H23.3931C23.7166 34.25 23.979 34.5123 23.979 34.8359V36.789C23.979 37.1126 23.7166 37.375 23.3931 37.375H20.8596C17.1812 37.375 14.9367 33.3199 16.8846 30.2031L19.3661 26.2291L17.3776 24.9865C16.7877 24.618 16.9398 23.7189 17.6159 23.5628L22.9985 22.3201C23.419 22.2231 23.8384 22.4852 23.9355 22.9056L25.1783 28.2882ZM29.9908 19.3569L32.0069 22.5832L30.0176 23.8262C29.4292 24.1938 29.5782 25.0935 30.2559 25.25L35.6385 26.4926C36.062 26.5902 36.4791 26.3248 36.5755 25.9072L37.8182 20.5245C37.9743 19.8486 37.2327 19.3175 36.643 19.6862L34.6563 20.9277L32.6415 17.701C30.8094 14.7697 26.5278 14.763 24.6915 17.701L23.8144 19.1056C23.643 19.38 23.7265 19.7414 24.0009 19.9129L25.6571 20.9478C25.9315 21.1193 26.2931 21.0358 26.4645 20.7614L27.3415 19.3579C27.9622 18.3647 29.391 18.3972 29.9908 19.3569ZM40.4481 30.2031L39.1046 28.0515C38.9332 27.777 38.5716 27.6934 38.2971 27.8649L36.6437 28.8981C36.3693 29.0696 36.2858 29.4311 36.4573 29.7055L37.8032 31.8594C38.4505 32.8951 37.7028 34.25 36.4782 34.25H31.7915V31.9072C31.7915 31.2132 30.9496 30.8631 30.4579 31.3548L26.5516 35.2601C26.2465 35.5652 26.2465 36.0599 26.5516 36.365L30.4579 40.2707C30.9462 40.7592 31.7915 40.417 31.7915 39.7182V37.375H36.4731C40.1486 37.375 42.3977 33.3224 40.4481 30.2031Z" fill="black"/>
</svg>
