<svg width="23" height="22" viewBox="0 0 23 22" fill="none" xmlns="http://www.w3.org/2000/svg">
<path d="M5.18148 2.38333C5.21814 3.70333 4.22814 4.76667 2.65148 4.76667C1.18481 4.76667 0.231476 3.70333 0.231476 2.38333C0.231476 1.02667 1.22148 0 2.72481 0C4.22814 0 5.18148 1.02667 5.18148 2.38333Z" fill="white"/>
<path d="M0.341477 22V6.63667H5.03481V22H0.341477Z" fill="white"/>
<path d="M17.5015 22V13.4933C17.5015 11.5133 16.8415 10.1567 15.1181 10.1567C13.8348 10.1567 13.0648 11.0733 12.6981 11.9533C12.5881 12.2833 12.5515 12.7233 12.5515 13.1633V22H7.85814V11.55C7.85814 9.64333 7.78481 8.03 7.74814 6.63667H11.8181L11.9234 8.67218C12.5467 7.64552 14.2748 6.30667 16.8048 6.30667C19.8848 6.30667 22.2315 8.39667 22.2315 12.9433V22H17.5015Z" fill="white"/>
</svg>
