<svg width="24" height="24" viewBox="0 0 24 24" fill="none" xmlns="http://www.w3.org/2000/svg">
<path opacity="0.7" d="M22.8927 15.4628L17.475 13.0351L17.4601 13.0282C17.1788 12.9079 16.872 12.8597 16.5674 12.8878C16.2628 12.9159 15.97 13.0195 15.7155 13.1892C15.6856 13.209 15.6568 13.2305 15.6293 13.2536L12.8301 15.6399C11.0568 14.7786 9.22602 12.9615 8.36466 11.2112L10.7544 8.36955C10.7774 8.3408 10.7992 8.31205 10.8199 8.281C10.986 8.02719 11.0868 7.73626 11.1133 7.4341C11.1398 7.13193 11.0911 6.82791 10.9717 6.54908V6.53528L8.53716 1.10838C8.37931 0.744129 8.10789 0.440699 7.76342 0.243384C7.41895 0.0460689 7.0199 -0.034548 6.62585 0.0135674C5.06755 0.218622 3.63719 0.98391 2.60189 2.1665C1.5666 3.34909 0.997193 4.8681 1.00001 6.43983C1.00001 15.5709 8.42906 23 17.5601 23C19.1319 23.0028 20.6509 22.4334 21.8334 21.3981C23.016 20.3628 23.7813 18.9324 23.9864 17.3741C24.0346 16.9802 23.9541 16.5813 23.757 16.2368C23.5599 15.8924 23.2567 15.6209 22.8927 15.4628ZM17.5601 21.16C13.6574 21.1557 9.91578 19.6035 7.15615 16.8438C4.39652 14.0842 2.84428 10.3425 2.84002 6.43983C2.8357 5.31683 3.24028 4.23065 3.97823 3.38414C4.71617 2.53763 5.73701 1.98867 6.8501 1.83978C6.84965 1.84437 6.84965 1.849 6.8501 1.85359L9.26512 7.25864L6.88805 10.1038C6.86392 10.1315 6.84201 10.1611 6.8225 10.1923C6.64944 10.4579 6.54792 10.7636 6.52777 11.08C6.50762 11.3963 6.56953 11.7125 6.7075 11.9978C7.74941 14.1288 9.89647 16.2598 12.0504 17.3005C12.3379 17.4372 12.6559 17.497 12.9734 17.474C13.2908 17.451 13.5969 17.3461 13.8617 17.1694C13.8912 17.1495 13.9196 17.128 13.9468 17.105L16.7425 14.7199L22.1475 17.1407C22.1475 17.1407 22.1567 17.1407 22.1602 17.1407C22.0131 18.2553 21.465 19.2782 20.6183 20.018C19.7716 20.7578 18.6844 21.1638 17.5601 21.16Z" fill="white"/>
</svg>
