<svg width="31" height="31" viewBox="0 0 31 31" fill="none" xmlns="http://www.w3.org/2000/svg">
<rect width="31" height="31" rx="15.5" fill="black"/>
<path fill-rule="evenodd" clip-rule="evenodd" d="M20.6759 9.63817C20.8577 9.63829 21.0321 9.71058 21.1607 9.83917C21.2893 9.96777 21.3616 10.1421 21.3617 10.324L21.3617 18.0882C21.365 18.1803 21.3496 18.2721 21.3166 18.3582C21.2836 18.4442 21.2336 18.5227 21.1696 18.589C21.1056 18.6553 21.0289 18.7081 20.9441 18.7441C20.8592 18.7801 20.768 18.7987 20.6759 18.7987C20.5837 18.7987 20.4925 18.7801 20.4077 18.7441C20.3228 18.7081 20.2461 18.6553 20.1821 18.589C20.1181 18.5227 20.0681 18.4442 20.0351 18.3582C20.0021 18.2721 19.9868 18.1803 19.99 18.0882L19.99 11.9804L10.8089 21.1615C10.6802 21.2902 10.5056 21.3625 10.3236 21.3625C10.1416 21.3625 9.96707 21.2902 9.83837 21.1615C9.70967 21.0328 9.63737 20.8583 9.63737 20.6763C9.63737 20.4942 9.70967 20.3197 9.83837 20.191L19.0195 11.0098L12.9117 11.0098C12.8196 11.0131 12.7278 10.9978 12.6417 10.9648C12.5557 10.9318 12.4772 10.8818 12.4109 10.8178C12.3445 10.7537 12.2918 10.677 12.2558 10.5922C12.2198 10.5074 12.2012 10.4162 12.2012 10.324C12.2012 10.2318 12.2198 10.1406 12.2558 10.0558C12.2918 9.97097 12.3445 9.89427 12.4109 9.83026C12.4772 9.76626 12.5557 9.71626 12.6417 9.68326C12.7278 9.65025 12.8196 9.63492 12.9117 9.63817L20.6759 9.63817Z" fill="white"/>
</svg>
