<svg width="13" height="8" viewBox="0 0 13 8" fill="none" xmlns="http://www.w3.org/2000/svg">
<path d="M12.2107 1.5854L6.58572 7.2104C6.53348 7.2627 6.47144 7.30419 6.40316 7.3325C6.33487 7.36081 6.26167 7.37538 6.18775 7.37538C6.11383 7.37538 6.04063 7.36081 5.97235 7.3325C5.90406 7.30419 5.84202 7.2627 5.78978 7.2104L0.164783 1.5854C0.0592351 1.47986 -6.10352e-05 1.3367 -6.10352e-05 1.18744C-6.10352e-05 1.03817 0.0592351 0.895014 0.164783 0.789466C0.270331 0.683918 0.413484 0.624622 0.562752 0.624622C0.712019 0.624622 0.855173 0.683918 0.96072 0.789466L6.18775 6.0172L11.4148 0.789466C11.467 0.737204 11.5291 0.695748 11.5974 0.667464C11.6657 0.63918 11.7388 0.624622 11.8128 0.624622C11.8867 0.624622 11.9598 0.63918 12.0281 0.667464C12.0964 0.695748 12.1585 0.737204 12.2107 0.789466C12.263 0.841728 12.3044 0.903772 12.3327 0.972056C12.361 1.04034 12.3756 1.11353 12.3756 1.18744C12.3756 1.26134 12.361 1.33453 12.3327 1.40281C12.3044 1.4711 12.263 1.53314 12.2107 1.5854Z" fill="white"/>
</svg>
