<svg width="32" height="22" viewBox="0 0 32 22" fill="none" xmlns="http://www.w3.org/2000/svg">
<path d="M30.5436 3.78377C30.367 3.14764 30.0211 2.56764 29.5406 2.10183C29.06 1.63602 28.4616 1.30076 27.8054 1.12961C26.0116 0.45833 8.63765 0.129452 3.59769 1.14884C2.94136 1.32001 2.34294 1.65532 1.86235 2.12118C1.38176 2.58704 1.03587 3.16711 0.85931 3.8033C0.0497471 7.24608 -0.0117102 14.6893 0.87915 18.209C1.05575 18.8451 1.40166 19.4251 1.88224 19.8909C2.36283 20.3568 2.96123 20.692 3.61753 20.8632C7.16926 21.6556 24.0551 21.7671 27.8252 20.8632C28.4815 20.692 29.0799 20.3568 29.5604 19.8909C30.041 19.4251 30.3869 18.8451 30.5634 18.209C31.4266 14.4582 31.4881 7.4767 30.5436 3.78377Z" fill="white"/>
<path d="M16.9242 -0.244247C19.5323 -0.224826 22.0432 -0.152267 24.0188 -0.0420989C25.0058 0.0129489 25.8677 0.0764512 26.5436 0.149796C27.1358 0.214055 27.6658 0.297332 28.0058 0.407608L28.0073 0.404679C28.7949 0.610079 29.5122 1.0134 30.0886 1.57216C30.5931 2.06111 30.9736 2.65469 31.2027 3.30653L31.292 3.58925L31.2966 3.6039C31.7908 5.53655 32.0117 8.27539 32.0065 10.9765C32.0012 13.6809 31.7677 16.4239 31.3193 18.3725C31.3169 18.3827 31.3145 18.393 31.3117 18.4032C31.1 19.1661 30.6848 19.8615 30.1083 20.4203C29.5318 20.9791 28.8146 21.3824 28.027 21.5878L28.0119 21.5907C26.9863 21.8366 25.1513 22.0009 22.9895 22.1049C20.804 22.2099 18.2152 22.2569 15.6376 22.2499C13.0596 22.2429 10.4848 22.1826 8.3281 22.0741C6.19412 21.9667 4.40717 21.8086 3.44348 21.5936C3.43442 21.5916 3.42522 21.5901 3.41624 21.5878C2.62865 21.3824 1.90994 20.9791 1.33342 20.4203C0.757135 19.8616 0.341776 19.1659 0.130054 18.4032L0.125513 18.3871L0.127027 18.3856C-0.340675 16.5368 -0.548733 13.7251 -0.54353 10.9765C-0.538288 8.22444 -0.319232 5.43734 0.104322 3.63612C0.106486 3.62697 0.107859 3.61736 0.110376 3.60829C0.32211 2.84552 0.737332 2.14998 1.31375 1.5912C1.89027 1.03235 2.60893 0.630603 3.39656 0.425186L3.43894 0.414932C6.05433 -0.114057 11.7426 -0.282818 16.9242 -0.244247ZM16.9136 1.25575C11.7145 1.21704 6.2114 1.39105 3.77649 1.87831C3.26059 2.01693 2.79018 2.28306 2.41116 2.65028C2.03126 3.01854 1.75641 3.47684 1.61345 3.9789C1.22882 5.62103 1.01166 8.27297 1.00647 10.9779C1.00131 13.6846 1.20761 16.348 1.62859 18.0194C1.77044 18.5269 2.04744 18.9896 2.43084 19.3612C2.8101 19.7288 3.28136 19.9931 3.79768 20.1317C4.61186 20.3124 6.26448 20.4677 8.40833 20.5756C10.5344 20.6826 13.0835 20.7429 15.6422 20.7499C18.2008 20.7568 20.7623 20.7098 22.9138 20.6063C25.085 20.5019 26.7726 20.3401 27.6335 20.1347C28.1544 19.9969 28.6303 19.7316 29.0124 19.3612C29.3941 18.9912 29.6678 18.5302 29.8101 18.0253C30.2219 16.2239 30.4513 13.6106 30.4565 10.9735C30.4616 8.33071 30.2426 5.73889 29.795 3.9789L29.736 3.78993C29.583 3.35452 29.3294 2.95758 28.9927 2.63124C28.6081 2.25842 28.1282 1.99032 27.6032 1.85341C27.577 1.84656 27.5513 1.83798 27.526 1.82851C27.4109 1.78544 27.0445 1.71409 26.3711 1.64101C25.734 1.57188 24.9035 1.50922 23.931 1.45497C21.9873 1.34656 19.5028 1.27504 16.9136 1.25575Z" fill="white"/>
<path d="M20.8207 10.9962L12.725 6.49561V15.4968L20.8207 10.9962Z" fill="white"/>
<path d="M12.3375 5.84696C12.5768 5.71315 12.8713 5.71229 13.111 5.84549L21.2061 10.3455C21.4465 10.4791 21.5949 10.7276 21.5951 10.9959C21.5951 11.2644 21.4467 11.5125 21.2061 11.6463L13.111 16.1477C12.8714 16.2808 12.5767 16.28 12.3375 16.1463C12.0982 16.0122 11.9501 15.7649 11.95 15.4973V6.49588C11.95 6.22822 12.0981 5.98104 12.3375 5.84696ZM13.5 14.201L19.2641 10.9959L13.5 7.7908V14.201Z" fill="black"/>
<path d="M13.5 14.201L19.2641 10.9959L13.5 7.7908V14.201Z" fill="black"/>
</svg>
