<svg width="20" height="14" viewBox="0 0 20 14" fill="none" xmlns="http://www.w3.org/2000/svg">
<path d="M10.7694 -0.496277C12.4519 -0.48333 14.072 -0.434947 15.3466 -0.361511C15.9832 -0.324821 16.5394 -0.282464 16.9755 -0.233582C17.3573 -0.190759 17.6994 -0.13518 17.9188 -0.0617065L17.9198 -0.0636597C18.4278 0.0732574 18.8907 0.342227 19.2626 0.714661C19.588 1.04061 19.8335 1.43637 19.9813 1.87091L20.0389 2.05939L20.0419 2.06915C20.3607 3.35759 20.5033 5.18348 20.4999 6.98419C20.4965 8.78717 20.3458 10.6158 20.0565 11.9149C20.055 11.9217 20.0534 11.9286 20.0516 11.9354C19.915 12.4439 19.6472 12.9076 19.2753 13.2801C18.9034 13.6525 18.4405 13.9215 17.9325 14.0584L17.9227 14.0604C17.261 14.2243 16.077 14.3339 14.6825 14.4031C13.2726 14.4732 11.6021 14.5045 9.93933 14.4998C8.2762 14.4951 6.61486 14.455 5.22351 14.3826C3.84689 14.311 2.69383 14.2056 2.07214 14.0623C2.06639 14.061 2.06027 14.0599 2.05457 14.0584C1.54655 13.9215 1.08269 13.6526 0.710815 13.2801C0.339087 12.9076 0.0710263 12.4437 -0.0655518 11.9354L-0.0684814 11.9246L-0.0675049 11.9236C-0.36924 10.6911 -0.503477 8.81659 -0.500122 6.98419C-0.49674 5.14956 -0.355399 3.29145 -0.0821533 2.09064C-0.0807656 2.08457 -0.0798531 2.0781 -0.0782471 2.07208C0.0583341 1.56364 0.326329 1.09984 0.69812 0.727356C1.07 0.354859 1.53384 0.0869806 2.04187 -0.0499878L2.06921 -0.0568237C3.75651 -0.409473 7.42651 -0.521981 10.7694 -0.496277ZM8.30945 3.56329C8.15488 3.47465 7.9647 3.47512 7.81042 3.56427C7.6561 3.65363 7.5605 3.81857 7.56042 3.99689V9.99786C7.56049 10.1761 7.65621 10.3411 7.81042 10.4305C7.96472 10.5196 8.15489 10.5201 8.30945 10.4315L13.5321 7.43048C13.6873 7.34131 13.7831 7.17591 13.7831 6.99689C13.7829 6.81811 13.6872 6.65236 13.5321 6.56329L8.30945 3.56329Z" fill="white"/>
</svg>
